HIERARCHY
ROOT Hips
{
	OFFSET 0.00000 0.00000 0.00000
	CHANNELS 6 Xposition Yposition Zposition Zrotation Yrotation Xrotation 
	JOINT LHipJoint
	{
		OFFSET 0 0 0
		CHANNELS 3 Zrotation Yrotation Xrotation
		JOINT LeftHip
		{
			OFFSET 1.55766 -1.60504 1.11378
			CHANNELS 3 Zrotation Yrotation Xrotation
			JOINT LeftKnee
			{
				OFFSET 2.29047 -6.29302 0.00000
				CHANNELS 3 Zrotation Yrotation Xrotation
				JOINT LeftAnkle
				{
					OFFSET 2.52265 -6.93093 0.00000
					CHANNELS 3 Zrotation Yrotation Xrotation
					JOINT LeftToe
					{
						OFFSET 0.17633 -0.48446 2.02656
						CHANNELS 3 Zrotation Yrotation Xrotation
						End Site
						{
							OFFSET 0.00000 -0.00000 1.04989
						}
					}
				}
			}
		}
	}
	JOINT RHipJoint
	{
		OFFSET 0 0 0
		CHANNELS 3 Zrotation Yrotation Xrotation
		JOINT RightHip
		{
			OFFSET -1.48599 -1.60504 1.11378
			CHANNELS 3 Zrotation Yrotation Xrotation
			JOINT RightKnee
			{
				OFFSET -2.27280 -6.24448 0.00000
				CHANNELS 3 Zrotation Yrotation Xrotation
				JOINT RightAnkle
				{
					OFFSET -2.50834 -6.89161 0.00000
					CHANNELS 3 Zrotation Yrotation Xrotation
					JOINT RightToe
					{
						OFFSET -0.26967 -0.74090 2.08741
						CHANNELS 3 Zrotation Yrotation Xrotation
						End Site
						{
							OFFSET -0.00000 -0.00000 1.10614
						}
					}
				}
			}
		}
	}
	JOINT lowerback
	{
		OFFSET 0 0 0
		CHANNELS 3 Zrotation Yrotation Xrotation
		JOINT Chest
		{
			OFFSET 0.06481 2.02437 -0.08472
			CHANNELS 3 Zrotation Yrotation Xrotation
			JOINT Chest2
			{
				OFFSET 0.00015 1.96711 0.18069
				CHANNELS 3 Zrotation Yrotation Xrotation
				JOINT lowerneck
				{
					OFFSET 0 0 0
					CHANNELS 3 Zrotation Yrotation Xrotation
					JOINT Neck
					{
						OFFSET -0.29961 1.68293 -0.13041
						CHANNELS 3 Zrotation Yrotation Xrotation
						JOINT Head
						{
							OFFSET 0.59697 1.61501 -0.14669
							CHANNELS 3 Zrotation Yrotation Xrotation
							End Site
							{
								OFFSET 0.22973 1.74906 -0.10148
							}
						}
					}
				}
				JOINT LeftCollar
				{
					OFFSET 0 0 0
					CHANNELS 3 Zrotation Yrotation Xrotation
					JOINT LeftShoulder
					{
						OFFSET 3.37968 1.02893 0.31147
CHANNELS 3 Zrotation Xrotation Yrotation
						JOINT LeftElbow
						{
OFFSET 0 -5.198070 -0.000000
CHANNELS 3 Zrotation Xrotation Yrotation
							JOINT LeftWrist
							{
OFFSET 0 -3.093700 -0.000000
CHANNELS 3 Zrotation Xrotation Yrotation
								JOINT lhand
								{
									OFFSET 0 0 0
CHANNELS 3 Zrotation Xrotation Yrotation
									JOINT LFingers
									{
OFFSET 0 -0.672630 -0.000000
CHANNELS 3 Zrotation Xrotation Yrotation
										End Site
										{
OFFSET 0 -0.542290 -0.000000
										}
									}
								}
								JOINT LThumb
								{
OFFSET 0 0.000000 0.000000
CHANNELS 3 Zrotation Xrotation Yrotation
									End Site
									{
OFFSET 0 -0.550570 0.550570
									}
								}
							}
						}
					}
				}
				JOINT RightCollar
				{
					OFFSET 0 0 0
					CHANNELS 3 Zrotation Yrotation Xrotation
					JOINT RightShoulder
					{
						OFFSET -3.38254 0.96355 -0.16120
CHANNELS 3 Zrotation Xrotation Yrotation
						JOINT RightElbow
						{
OFFSET 0 -5.452220 -0.000000
CHANNELS 3 Zrotation Xrotation Yrotation
							JOINT RightWrist
							{
OFFSET 0 -3.012840 -0.000000
CHANNELS 3 Zrotation Xrotation Yrotation
								JOINT rhand
								{
									OFFSET 0 0 0
CHANNELS 3 Zrotation Xrotation Yrotation
									JOINT RFingers
									{
OFFSET 0 -0.622300 -0.000000
CHANNELS 3 Zrotation Xrotation Yrotation
										End Site
										{
OFFSET 0 -0.501710 -0.000000
										}
									}
								}
								JOINT RThumb
								{
OFFSET 0 0.000000 0.000000
CHANNELS 3 Zrotation Xrotation Yrotation
									End Site
									{
OFFSET 0 -0.509370 0.509370
									}
								}
							}
						}
					}
				}
			}
		}
	}
}
MOTION
Frames: 10
Frame Time: 0.008333333333333333
-7.580919 16.496376 -4.613382 -180.934531 8.338173 -172.404524 0.000000 0.000000 0.000000 -22.214671 -8.475924 -27.812120 2.902806 10.535911 30.730312 0.107641 -11.075847 -9.293577 0.210510 -2.953897 -8.150493 0.000000 0.000000 0.000000 18.365000 6.319778 -9.582899 -8.643990 -16.569618 54.845191 0.538891 13.503580 9.198850 -1.454279 7.622100 -21.572159 0.312398 3.311841 -1.900743 -1.798114 4.921860 -7.184797 -2.237118 2.605405 -6.214430 -31.057051 -5.312738 22.454555 39.769846 -18.498895 -4.409100 20.837029 -12.726326 2.139817 0.000000 0.000000 0.000000 4.110465 20.245977 -26.241777 15.867848 -25.341043 3.589265 13.047288 -37.848265 8.530166 0.000000 0.000000 0.000000 -7.125000 0.000000 0.000000 -9.970544 21.279220 -5.758471 0.000000 0.000000 0.000000 0.999290 8.626314 13.889890 -10.902491 -18.138662 -1.745447 -2.221118 32.197585 -0.839639 0.000000 0.000000 0.000000 7.125000 0.000000 0.000000 18.753676 28.877531 7.749017
-7.593996 16.496233 -4.770900 -181.509664 8.604858 -172.733910 0.000000 0.000000 0.000000 -23.153895 -7.820088 -26.889717 2.855657 10.457529 30.471502 0.127827 -11.317715 -9.699280 0.203724 -2.906425 -8.018447 0.000000 0.000000 0.000000 17.606500 6.634740 -11.284037 -9.270565 -16.976292 57.017693 0.527519 12.847631 6.171924 -1.502149 7.741241 -21.930861 -0.290139 3.252167 -1.501380 -1.878470 4.800102 -7.065971 -2.007837 2.564196 -6.360910 -31.129458 -5.284705 22.238612 39.744199 -18.364146 -4.422436 20.836996 -12.629079 2.123635 0.000000 0.000000 0.000000 4.218968 19.967198 -26.830548 16.039815 -25.574506 3.663204 13.241182 -37.999915 8.493077 0.000000 0.000000 0.000000 -7.125000 0.000000 0.000000 -9.833005 21.308729 -5.670042 0.000000 0.000000 0.000000 0.712517 8.690044 14.453509 -10.953042 -18.216220 -1.761215 -2.250130 31.969280 -0.847022 0.000000 0.000000 0.000000 7.125000 0.000000 0.000000 18.730771 28.871207 7.741567
-7.606076 16.492763 -4.925823 -182.105027 8.785962 -173.051907 0.000000 0.000000 0.000000 -24.096678 -7.198654 -26.014765 2.813925 10.387423 30.240854 0.144077 -11.616279 -10.074562 0.200370 -2.882105 -7.950692 0.000000 0.000000 0.000000 16.835548 6.876783 -13.039130 -9.858599 -17.328398 59.013122 0.478150 12.219643 3.272801 -1.515370 7.773845 -22.029121 -0.904983 3.167142 -1.112056 -1.967719 4.642149 -6.953153 -1.778010 2.507249 -6.508479 -31.201814 -5.251618 22.032217 39.730560 -18.231806 -4.434615 20.845643 -12.536607 2.108633 0.000000 0.000000 0.000000 4.364239 19.654626 -27.435981 16.197180 -25.787216 3.731321 13.448637 -38.069638 8.481671 0.000000 0.000000 0.000000 -7.125000 0.000000 0.000000 -9.684574 21.311580 -5.581223 0.000000 0.000000 0.000000 0.440590 8.731525 14.987595 -11.010147 -18.303802 -1.779082 -2.434617 31.709660 -0.828587 0.000000 0.000000 0.000000 7.125000 0.000000 0.000000 18.596262 28.893076 7.669925
-7.616966 16.486872 -5.078518 -182.667394 8.878400 -173.326426 0.000000 0.000000 0.000000 -24.980020 -6.638910 -25.219608 2.782208 10.333901 30.064863 0.157508 -11.956107 -10.429386 0.199496 -2.875978 -7.933642 0.000000 0.000000 0.000000 16.111794 7.080496 -14.841070 -10.391250 -17.623927 60.788165 0.399591 11.648159 0.592618 -1.502575 7.742354 -21.934245 -1.480490 3.059918 -0.760585 -2.053640 4.455722 -6.854214 -1.561454 2.436476 -6.645349 -31.271468 -5.210723 21.851691 39.730214 -18.100628 -4.453107 20.865615 -12.449782 2.089145 0.000000 0.000000 0.000000 4.541350 19.298620 -28.009701 16.315228 -25.946119 3.782827 13.565646 -38.074263 8.600551 0.000000 0.000000 0.000000 -7.125000 0.000000 0.000000 -9.595765 21.186287 -5.556183 0.000000 0.000000 0.000000 0.188129 8.764117 15.470094 -11.077214 -18.406511 -1.800217 -2.771202 31.430858 -0.782104 0.000000 0.000000 0.000000 7.125000 0.000000 0.000000 18.352864 28.945138 7.535180
-7.626314 16.479521 -5.228520 -183.126055 8.872256 -173.510861 0.000000 0.000000 0.000000 -25.715435 -6.176358 -24.559656 2.768119 10.309871 29.986031 0.169673 -12.331560 -10.781815 0.199148 -2.873737 -7.927546 0.000000 0.000000 0.000000 15.519666 7.282087 -16.698094 -10.847549 -17.859078 62.284798 0.300150 11.122331 -1.782895 -1.478934 7.684068 -21.758435 -1.950357 2.932578 -0.477588 -2.119240 4.248781 -6.776688 -1.375492 2.352957 -6.757487 -31.325949 -5.172457 21.686300 39.730951 -17.977707 -4.469854 20.883226 -12.369440 2.069305 0.000000 0.000000 0.000000 4.746345 18.883893 -28.519385 16.391018 -26.047959 3.816097 13.569219 -38.046449 8.845278 0.000000 0.000000 0.000000 -7.125000 0.000000 0.000000 -9.583497 20.938269 -5.603443 0.000000 0.000000 0.000000 -0.036636 8.786018 15.870982 -11.153657 -18.523448 -1.824461 -3.280725 31.159276 -0.711325 0.000000 0.000000 0.000000 7.125000 0.000000 0.000000 17.983288 29.024325 7.332997
-7.634362 16.472233 -5.377962 -183.407090 8.777802 -173.603516 0.000000 0.000000 0.000000 -26.230493 -5.808030 -24.022029 2.775005 10.321596 30.024581 0.183999 -12.725116 -11.164966 0.197702 -2.862988 -7.897543 0.000000 0.000000 0.000000 15.141851 7.493326 -18.558260 -11.217696 -18.039442 63.485870 0.191613 10.627916 -3.867337 -1.459598 7.635800 -21.613236 -2.240876 2.789062 -0.277229 -2.141507 4.030118 -6.712591 -1.236159 2.255899 -6.824347 -31.373634 -5.138504 21.531545 39.730915 -17.866884 -4.480371 20.897689 -12.296495 2.053257 0.000000 0.000000 0.000000 4.960469 18.399231 -28.986760 16.421374 -26.088754 3.829408 13.524704 -38.021037 9.188200 0.000000 0.000000 0.000000 -7.125000 0.000000 0.000000 -9.602368 20.593117 -5.690637 0.000000 0.000000 0.000000 -0.239188 8.795467 16.184218 -11.241069 -18.656802 -1.852318 -3.907439 30.885997 -0.622094 0.000000 0.000000 0.000000 7.125000 0.000000 0.000000 17.527474 29.123624 7.086423
-7.641362 16.465345 -5.527877 -183.495945 8.607255 -173.609095 0.000000 0.000000 0.000000 -26.513584 -5.515148 -23.597593 2.803290 10.369542 30.182066 0.201911 -13.136680 -11.590466 0.194057 -2.836690 -7.824369 0.000000 0.000000 0.000000 14.993491 7.718512 -20.396809 -11.494405 -18.168280 64.376577 0.082650 10.165320 -5.654509 -1.444022 7.596608 -21.495430 -2.334682 2.634024 -0.167511 -2.115481 3.807420 -6.654039 -1.148034 2.147509 -6.832971 -31.416749 -5.110871 21.381978 39.730021 -17.769449 -4.484260 20.908460 -12.230974 2.043057 0.000000 0.000000 0.000000 5.177104 17.840309 -29.443363 16.420360 -26.087349 3.828963 13.550759 -37.943535 9.476043 0.000000 0.000000 0.000000 -7.125000 0.000000 0.000000 -9.573556 20.300409 -5.736943 0.000000 0.000000 0.000000 -0.420035 8.795461 16.411727 -11.345427 -18.815795 -1.885879 -4.619977 30.596267 -0.513396 0.000000 0.000000 0.000000 7.125000 0.000000 0.000000 17.008126 29.243308 6.807420
-7.647187 16.459105 -5.678427 -183.406676 8.372661 -173.548381 0.000000 0.000000 0.000000 -26.583514 -5.273725 -23.256806 2.848862 10.446177 30.434246 0.223756 -13.563161 -12.057736 0.187852 -2.791131 -7.697798 0.000000 0.000000 0.000000 15.059679 7.956984 -22.188873 -11.676679 -18.250481 64.960027 -0.021548 9.737706 -7.178642 -1.434638 7.573064 -21.424632 -2.250309 2.470603 -0.126394 -2.041897 3.583377 -6.597227 -1.103980 2.029424 -6.794362 -31.457740 -5.091738 21.230205 39.727058 -17.689027 -4.475438 20.913429 -12.173994 2.043303 0.000000 0.000000 0.000000 5.395412 17.214882 -29.911960 16.399774 -26.059722 3.819889 13.675706 -37.835528 9.659247 0.000000 0.000000 0.000000 -7.125000 0.000000 0.000000 -9.478555 20.108769 -5.719832 0.000000 0.000000 0.000000 -0.580257 8.783351 16.546653 -11.463528 -18.995270 -1.924164 -5.394091 30.281392 -0.389932 0.000000 0.000000 0.000000 7.125000 0.000000 0.000000 16.442127 29.378619 6.507205
-7.651975 16.453285 -5.830037 -183.206990 8.095694 -173.462254 0.000000 0.000000 0.000000 -26.520089 -5.051387 -22.947735 2.903942 10.537814 30.736638 0.249476 -14.000973 -12.561433 0.179931 -2.732120 -7.533891 0.000000 0.000000 0.000000 15.261503 8.201545 -23.909846 -11.770547 -18.291989 65.259740 -0.118390 9.358177 -8.486038 -1.431061 7.563911 -21.397210 -2.059762 2.302648 -0.125293 -1.934906 3.359098 -6.537935 -1.081559 1.905845 -6.725583 -32.560031 -7.794197 21.205240 39.246961 -17.136089 -2.543657 20.790985 -10.477178 2.693726 0.000000 0.000000 0.000000 5.609028 16.547463 -30.386212 16.369106 -26.018487 3.806450 13.874938 -37.723750 9.768500 0.000000 0.000000 0.000000 -7.125000 0.000000 0.000000 -9.333535 19.987960 -5.655662 0.000000 0.000000 0.000000 -0.725194 8.777656 16.607997 -11.599247 -19.200841 -1.968523 -6.210455 29.901901 -0.256097 0.000000 0.000000 0.000000 7.125000 0.000000 0.000000 15.842714 29.524819 6.194621
-7.655726 16.446722 -5.982085 -182.985077 7.793854 -173.383840 0.000000 0.000000 0.000000 -26.421980 -4.825046 -22.625829 2.959453 10.629128 31.039180 0.277515 -14.445040 -13.079224 0.172366 -2.674262 -7.373304 0.000000 0.000000 0.000000 15.497064 8.447001 -25.555925 -11.787981 -18.299567 65.315109 -0.208543 9.042003 -9.639450 -1.434446 7.572497 -21.422901 -1.856666 2.133351 -0.129188 -1.817131 3.133778 -6.474073 -1.054812 1.781200 -6.649722 -32.923084 -8.620104 21.094711 39.092011 -16.940908 -1.918848 20.748963 -9.932621 2.911525 0.000000 0.000000 0.000000 5.823145 15.857169 -30.870393 16.336457 -25.974724 3.792124 14.107920 -37.621816 9.825755 0.000000 0.000000 0.000000 -7.125000 0.000000 0.000000 -9.166477 19.917936 -5.566376 0.000000 0.000000 0.000000 -0.854758 8.769279 16.598049 -11.739523 -19.412728 -2.014834 -7.055104 29.449755 -0.121088 0.000000 0.000000 0.000000 7.125000 0.000000 0.000000 15.218855 29.672986 5.877830
